<?xml version="1.0" standalone="yes"?>

<svg version="1.1" viewBox="0.0 0.0 109.13648293963254 101.15485564304461" fill="none" stroke="none" stroke-linecap="square" stroke-miterlimit="10" xmlns="http://www.w3.org/2000/svg" xmlns:xlink="http://www.w3.org/1999/xlink"><clipPath id="p.0"><path d="m0 0l109.13648 0l0 101.154854l-109.13648 0l0 -101.154854z" clip-rule="nonzero"></path></clipPath><g clip-path="url(#p.0)"><path fill="#000000" fill-opacity="0.0" d="m0 0l109.13648 0l0 101.154854l-109.13648 0z" fill-rule="evenodd"></path><path fill="#f1fffa" d="m-0.015748031 24.598728l0 0c0 -8.390257 6.8016477 -15.191904 15.191905 -15.191904l78.3721 0c4.0291367 0 7.893257 1.6005707 10.742294 4.449606c2.8490372 2.8490353 4.449608 6.7131557 4.449608 10.742298l0 60.765797c0 8.390259 -6.801651 15.191902 -15.191902 15.191902l-78.3721 0c-8.390257 0 -15.191905 -6.8016434 -15.191905 -15.191902z" fill-rule="evenodd"></path><path fill="#515052" d="m-0.015748031 45.48819l108.755905 0l0 22.173225l-108.755905 0z" fill-rule="evenodd"></path><path fill="#515052" d="m48.0 56.574802l0 0c0 -13.889744 10.886177 -25.149605 24.314964 -25.149605l0 0c6.448723 0 12.633331 2.649681 17.193268 7.36615c4.559944 4.716465 7.121689 11.113365 7.121689 17.783455l0 0c0 13.889744 -10.886177 25.149609 -24.314957 25.149609l0 0c-13.428787 0 -24.314964 -11.259865 -24.314964 -25.149609z" fill-rule="evenodd"></path><path stroke="#515052" stroke-width="1.0" stroke-linejoin="round" stroke-linecap="butt" d="m48.0 56.574802l0 0c0 -13.889744 10.886177 -25.149605 24.314964 -25.149605l0 0c6.448723 0 12.633331 2.649681 17.193268 7.36615c4.559944 4.716465 7.121689 11.113365 7.121689 17.783455l0 0c0 13.889744 -10.886177 25.149609 -24.314957 25.149609l0 0c-13.428787 0 -24.314964 -11.259865 -24.314964 -25.149609z" fill-rule="evenodd"></path><path fill="#515052" d="m60.787403 3.1076117l23.055119 0l0 6.2992125l-23.055119 0z" fill-rule="evenodd"></path><path stroke="#515052" stroke-width="1.0" stroke-linejoin="round" stroke-linecap="butt" d="m60.787403 3.1076117l23.055119 0l0 6.2992125l-23.055119 0z" fill-rule="evenodd"></path><path fill="#515052" d="m13.485564 6.992126l8.251969 0l0 1.7637792l-8.251969 0z" fill-rule="evenodd"></path><path stroke="#515052" stroke-width="1.0" stroke-linejoin="round" stroke-linecap="butt" d="m13.485564 6.992126l8.251969 0l0 1.7637792l-8.251969 0z" fill-rule="evenodd"></path><path fill="#ffffff" d="m50.07874 56.574802l0 0c0 -12.472069 9.955498 -22.582676 22.236225 -22.582676l0 0c5.8974075 0 11.553276 2.3792381 15.723381 6.614311c4.1700974 4.235073 6.5128326 9.979069 6.5128326 15.968365l0 0c0 12.472073 -9.95549 22.582676 -22.236214 22.582676l0 0c-12.280727 0 -22.236225 -10.110603 -22.236225 -22.582676z" fill-rule="evenodd"></path><path stroke="#515052" stroke-width="1.0" stroke-linejoin="round" stroke-linecap="butt" d="m50.07874 56.574802l0 0c0 -12.472069 9.955498 -22.582676 22.236225 -22.582676l0 0c5.8974075 0 11.553276 2.3792381 15.723381 6.614311c4.1700974 4.235073 6.5128326 9.979069 6.5128326 15.968365l0 0c0 12.472073 -9.95549 22.582676 -22.236214 22.582676l0 0c-12.280727 0 -22.236225 -10.110603 -22.236225 -22.582676z" fill-rule="evenodd"></path></g></svg>

