<?xml version="1.0" standalone="yes"?>

<svg version="1.1" viewBox="0.0 0.0 100.0 100.0" fill="none" stroke="none" stroke-linecap="square" stroke-miterlimit="10" xmlns="http://www.w3.org/2000/svg" xmlns:xlink="http://www.w3.org/1999/xlink"><clipPath id="p.0"><path d="m0 0l100.0 0l0 100.0l-100.0 0l0 -100.0z" clip-rule="nonzero"></path></clipPath><g clip-path="url(#p.0)"><path fill="#000000" fill-opacity="0.0" d="m0 0l100.0 0l0 100.0l-100.0 0z" fill-rule="evenodd"></path><path fill="#f1fffa" d="m0.6902887 17.302168l0 0c0 -9.135349 7.4056644 -16.541014 16.541014 -16.541014l66.22506 0l0 0c4.3869553 0 8.594223 1.7427089 11.696266 4.844751c3.1020432 3.1020412 4.8447495 7.309313 4.8447495 11.696262l0 66.16206c0 9.135353 -7.4056625 16.541016 -16.541016 16.541016l-66.22506 0c-9.135349 0 -16.541014 -7.4056625 -16.541014 -16.541016z" fill-rule="evenodd"></path><path fill="#515052" d="m8.456693 31.223276l0 0c0 -4.946018 4.0095406 -8.955559 8.95556 -8.955559l35.821167 0l0 0c2.3751602 0 4.653042 0.9435291 6.332535 2.623022c1.679493 1.679493 2.623024 3.9573746 2.623024 6.3325367l0 37.55345c0 4.9460144 -4.0095406 8.955559 -8.955559 8.955559l-35.821167 0c-4.946019 0 -8.95556 -4.0095444 -8.95556 -8.955559z" fill-rule="evenodd"></path><path fill="#515052" d="m94.29921 71.16535l-26.078735 -6.519684l0 -29.291336l26.078735 -6.5196857z" fill-rule="evenodd"></path><path stroke="#515052" stroke-width="1.0" stroke-linejoin="round" stroke-linecap="butt" d="m94.29921 71.16535l-26.078735 -6.519684l0 -29.291336l26.078735 -6.5196857z" fill-rule="evenodd"></path></g></svg>

